<svg version="1.1" viewBox="0.0 0.0 755 113" fill="none" stroke="none" stroke-linecap="square" stroke-miterlimit="10" xmlns:xlink="http://www.w3.org/1999/xlink" xmlns="http://www.w3.org/2000/svg"><clipPath id="p.0"><path d="m0 0l755.9055 0l0 113.385826l-755.9055 0l0 -113.385826z" clip-rule="nonzero"/></clipPath><g clip-path="url(#p.0)"><path fill="#95cc50" d="m7.8309402 20.189331l0 0c0 -10.080485 8.171848 -18.252333 18.252333 -18.252333l703.7473 0c4.8408203 0 9.483398 1.9230082 12.906372 5.3459845c3.4229736 3.422977 5.3459473 8.065529 5.3459473 12.906349l0 73.00714c0 10.08049 -8.171814 18.252335 -18.25232 18.252335l-703.7473 0c-10.080484 0 -18.252333 -8.1718445 -18.252333 -18.252335z" fill-rule="evenodd"/><path fill="#000000" fill-opacity="0.0" d="m2.8346457 1.9369977l750.2362 0l0 109.51181l-750.2362 0z" fill-rule="evenodd"/><path fill="#595959" d="m176.0012 46.52784l10.140625 -0.53125q7.140625 0 8.34375 4.96875q0.328125 1.40625 0.328125 3.03125l0 15.1875q0 6.59375 -1.984375 9.84375q-1.96875 3.234375 -7.078125 7.21875q-5.203125 4.328125 -15.734375 6.234375q-3.875 0.71875 -10.0625 0.71875q-6.171875 0 -13.09375 -2.546875q-6.921875 -2.5625 -12.0625 -7.5q-11.046867 -10.59375 -11.046867 -28.90625q0 -18.3125 11.078117 -29.312498q11.078125 -11.000001 29.046875 -11.000001q7.5625 0 11.8125 2.156251q-1.375 0.109375 -1.375 -0.17187595l0 -0.34375q0.140625 -2.21875 1.578125 -3.53125q1.453125 -1.3125 3.4375 -1.3125q2.0 0 3.6875 1.625q1.6875 1.609375 3.140625 4.703126q1.453125 3.09375 2.484375 4.421875l3.859375 5.09375q2.5625 3.265625 2.5625 5.640623q0 2.359375 -1.359375 3.96875q-1.359375 1.609375 -3.5625 1.609375q-2.203125 0 -3.828125 -1.125q-1.625 -1.140625 -3.34375 -3.953125q-2.703125 -4.437498 -7.390625 -6.328123q-4.671875 -1.890625 -11.375 -1.890625q-12.671875 0 -20.28125 7.796873q-7.609375 7.78125 -7.609375 21.578125q0 13.796875 7.203125 21.0625q7.21875 7.25 18.46875 7.25q7.703125 0 13.734375 -2.40625q2.53125 -1.046875 4.40625 -2.828125q1.890625 -1.796875 2.546875 -3.171875q0.65625 -1.390625 0.65625 -6.625l0 -9.515625q0 -0.109375 -0.09375 -0.21875q-0.09375 -0.125 -0.6875 -0.125q-4.984375 0 -9.234375 0.3125q-4.234375 0.3125 -7.390625 0.3125q-3.15625 0 -4.859375 -1.65625q-1.703125 -1.65625 -1.703125 -4.109375q0 -5.859375 8.6875 -5.859375q1.484375 0 2.546875 0.046875l1.75 0.09375q2.078125 0.09375 3.65625 0.09375zm36.806564 19.421875q0 7.421875 4.15625 11.953125q4.15625 4.53125 10.546875 4.53125q6.40625 0 10.3125 -4.234375q3.90625 -4.234375 3.90625 -11.484375q0 -12.046875 -8.328125 -15.609375q-2.75 -1.1875 -6.28125 -1.1875q-6.640625 0 -10.484375 4.3125q-3.828125 4.296875 -3.828125 11.71875zm-11.53125 0.53125q0 -11.703125 7.5 -19.515625q7.5 -7.8125 18.84375 -7.8125q11.359375 0 18.53125 7.28125q7.171875 7.265625 7.171875 19.28125q0 12.0 -7.46875 19.75q-7.453125 7.734375 -19.015625 7.734375q-11.546875 0 -18.5625 -7.5q-7.0 -7.515625 -7.0 -19.21875zm72.55231 -0.53125q0 7.421875 4.15625 11.953125q4.15625 4.53125 10.546875 4.53125q6.40625 0 10.3125 -4.234375q3.90625 -4.234375 3.90625 -11.484375q0 -12.046875 -8.328125 -15.609375q-2.75 -1.1875 -6.28125 -1.1875q-6.640625 0 -10.484375 4.3125q-3.828125 4.296875 -3.828125 11.71875zm-11.53125 0.53125q0 -11.703125 7.5 -19.515625q7.5 -7.8125 18.84375 -7.8125q11.359375 0 18.53125 7.28125q7.171875 7.265625 7.171875 19.28125q0 12.0 -7.46875 19.75q-7.453125 7.734375 -19.015625 7.734375q-11.546875 0 -18.5625 -7.5q-7.0 -7.515625 -7.0 -19.21875zm98.03665 -13.75q-3.671875 -2.8125 -9.953125 -2.8125q-6.265625 0 -10.5625 4.53125q-4.296875 4.53125 -4.296875 12.015625q0 7.46875 3.890625 11.71875q3.890625 4.25 10.421875 4.25q6.53125 0 10.5 -4.609375l0 -25.09375zm2.234375 35.75q-4.21875 4.71875 -14.15625 4.71875q-9.921875 0 -17.171875 -7.171875q-7.25 -7.1875 -7.25 -19.15625q0 -11.96875 7.875 -19.84375q7.875 -7.875 19.734375 -7.875q6.109375 0 8.734375 1.421875l0 -15.296873q0 -1.421875 0.15625 -1.59375q0.171875 -0.1875 0.28125 0.28125l-4.171875 0.578125q-2.578125 0 -4.328125 -1.359375q-1.734375 -1.375 -1.734375 -3.875q0 -5.093751 6.671875 -5.765626q3.4375 -0.328125 5.234375 -0.90625q1.796875 -0.59375 4.09375 -0.59375q5.28125 0 5.28125 6.203126l0 53.515625q0 6.421875 0.4375 8.28125q0.4375 1.859375 1.359375 2.453125q3.25 2.09375 3.25 5.03125q0 5.671875 -6.296875 5.671875q-6.28125 0 -8.0 -4.71875z" fill-rule="nonzero"/><path fill="#595959" d="m400.6834 92.46534l-9.703125 0.296875q-2.1875 0 -3.453125 -1.046875q-1.25 -1.046875 -1.25 -2.78125q0 -1.75 1.46875 -2.859375q1.484375 -1.125 3.96875 -1.125l3.25 0l0 -59.78125l-1.890625 0q-4.234375 0 -6.03125 -1.28125q-1.78125 -1.28125 -1.78125 -3.171875q0 -3.6875 6.734375 -3.6875l22.328125 0.671875q6.875 0 12.703125 -1.0625q-0.234375 -0.78125095 -0.234375 -1.671876q0 -0.90625 0.921875 -1.796875q0.921875 -0.90625 2.65625 -0.90625q4.375 0 9.859375 15.000001q1.015625 2.8125 1.015625 4.265625q0 3.343748 -3.015625 3.343748q-2.65625 0 -4.453125 -5.187498q-1.125 -3.203125 -3.578125 -4.484375q-2.4375 -1.28125 -6.234375 -1.28125l-1.109375 0q-0.625 0 -1.84375 0.046875l-2.8125 0.1875q-0.875 0.046875 -2.65625 0.203125q-1.765625 0.140625 -3.84375 0.28125l-7.71875 0.53125l0 24.499998q12.375 0 13.921875 -0.328125q1.5625 -0.34375 2.328125 -1.015625q0.78125 -0.6875 1.078125 -2.53125q0.625 -3.59375 4.265625 -3.59375q1.015625 0 1.953125 0.703125q0.953125 0.703125 0.953125 2.0q0 1.28125 -0.875 3.734375q-0.875 2.4375 -0.875 4.75q0 2.296875 0.875 4.484375l1.265625 3.453125q0.484375 1.203125 0.484375 2.6875q0 1.484375 -1.125 2.390625q-1.109375 0.890625 -2.65625 0.890625q-3.109375 0 -3.890625 -4.09375q-0.765625 -4.109375 -1.6875 -5.265625q-0.921875 -1.171875 -3.296875 -1.171875l-12.71875 0l0 28.1875l7.8125 0q3.390625 0 4.765625 1.1875q1.390625 1.1875 1.390625 2.390625q0 4.234375 -5.140625 4.234375l-1.15625 0q-0.6875 0 -1.40625 0l-1.515625 -0.109375q-0.71875 0 -1.453125 -0.03125q-0.71875 -0.015625 -2.859375 -0.0625l-1.9375 -0.09375q-0.96875 0 -1.796875 0zm50.021057 -24.953125q0 8.015625 4.578125 13.015625q4.59375 5.0 11.671875 5.0q7.078125 0 11.421875 -4.703125q4.34375 -4.703125 4.34375 -12.5625q0 -13.0625 -9.265625 -17.03125q-3.046875 -1.3125 -6.890625 -1.3125q-7.328125 0 -11.59375 4.78125q-4.265625 4.78125 -4.265625 12.8125zm-8.4375 0.53125q0 -11.09375 7.046875 -18.4375q7.0625 -7.359375 17.765625 -7.359375q10.703125 0 17.421875 6.828125q6.71875 6.8125 6.71875 18.1875q0 11.375 -7.015625 18.65625q-7.015625 7.28125 -17.90625 7.28125q-10.890625 0 -17.46875 -7.03125q-6.5625 -7.046875 -6.5625 -18.125zm66.36478 -0.53125q0 8.015625 4.5780945 13.015625q4.593811 5.0 11.671936 5.0q7.078125 0 11.421875 -4.703125q4.34375 -4.703125 4.34375 -12.5625q0 -13.0625 -9.265625 -17.03125q-3.046875 -1.3125 -6.890625 -1.3125q-7.328125 0 -11.593811 4.78125q-4.2655945 4.78125 -4.2655945 12.8125zm-8.4375 0.53125q0 -11.09375 7.046875 -18.4375q7.0624695 -7.359375 17.765656 -7.359375q10.703125 0 17.421875 6.828125q6.71875 6.8125 6.71875 18.1875q0 11.375 -7.015625 18.65625q-7.015625 7.28125 -17.90625 7.28125q-10.890686 0 -17.46878 -7.03125q-6.5625 -7.046875 -6.5625 -18.125zm94.9429 -14.53125q-4.703125 -3.59375 -11.578125 -3.59375q-6.859375 0 -11.59375 5.0q-4.734375 5.0 -4.734375 13.078125q0 8.078125 4.3125 12.8125q4.328125 4.71875 11.546875 4.71875q7.234375 0 12.046875 -5.578125l0 -26.4375zm1.25 33.5625q-5.46875 6.125 -14.734375 6.125q-9.265625 0 -16.0625 -6.71875q-6.796875 -6.734375 -6.796875 -18.0625q0 -11.328125 7.421875 -18.75q7.421875 -7.421875 18.640625 -7.421875q5.71875 0 10.28125 2.484375l0 -17.906248q0 -1.890625 -0.328125 -2.375q-0.3125 -0.484375 -0.890625 -0.484375l-4.171875 0.578125q-1.9375 0 -3.171875 -0.96875q-1.234375 -0.96875 -1.234375 -2.71875q0 -3.6875 5.28125 -4.21875q3.59375 -0.34375 5.359375 -0.92187595q1.765625 -0.578125 3.8125 -0.578125q3.734375 0 3.734375 4.656251l0 53.515625q0 6.59375 0.53125 8.859375q0.53125 2.25 1.984375 3.171875q2.53125 1.640625 2.53125 3.734375q0 4.125 -4.984375 4.125q-4.96875 0 -7.203125 -6.125zm27.552307 6.125q-3.046875 0 -4.890625 -1.84375q-1.84375 -1.84375 -1.84375 -4.796875q0 -2.96875 1.75 -4.859375q1.75 -1.890625 4.953125 -1.890625q3.203125 0 5.015625 1.8125q1.8125 1.8125 1.8125 4.75q0 2.9375 -1.875 4.890625q-1.859375 1.9375 -4.921875 1.9375zm5.109375 -73.078125l-0.53125 12.374998l0 16.9375q0 5.4375 0.28125 8.34375q0.296875 2.90625 0.296875 4.046875q0 1.140625 -0.484375 2.140625q-0.484375 0.984375 -1.21875 1.625q-1.40625 1.3125 -3.546875 1.3125q-2.125 0 -3.5625 -1.53125q-1.421875 -1.53125 -1.421875 -3.078125q0 -1.5625 0.09375 -2.53125l0.296875 -2.125q0.4375 -3.203125 0.4375 -8.203125l0 -16.9375q0 -5.234373 -0.421875 -7.531248q-0.40625 -2.3125 -0.40625 -4.25q0 -1.9375 1.359375 -3.296875q1.359375 -1.359375 3.578125 -1.359375q2.234375 0 3.734375 1.1875q1.515625 1.1875 1.515625 2.875z" fill-rule="nonzero"/></g></svg>